# xmcd
#
# Track frame offsets: 
#        150
#        16087
#        26543
#        39656
#        59370
#        78474
#        99161
#        116972
#        130376
#        144476
#        161540
#        183291
#        195491
#        233034
#        250651
#
# Disc length: 3552 seconds
#
# Revision: 0
# Processed by: cddbd v1.5.2PL0 Copyright (c) Steve Scherf et al.
# Submitted via: ExactAudioCopy v0.95a5
#
DISCID=bd0dde0f
DTITLE=Outsider - Double Eagle
DYEAR=2009
DGENRE=Blues
TTITLE0=I'm Ready
TTITLE1=Hound Dog
TTITLE2=Mellow Down Easy
TTITLE3=Low Rider
TTITLE4=Blow Wind Blow
TTITLE5=My Eyes Keep Me In Trouble
TTITLE6=Crazy mIXED uP[ wORLD
TTITLE7=Killing Floor
TTITLE8=wHO
TTITLE9=mY bABE
TTITLE10=sTORMY mONDAY
TTITLE11=dON'T sTART mE tO tALKIN'
TTITLE12=bAD wHISKEY
TTITLE13=nEED mY bABY
TTITLE14=kEY tO tHE NhIGHWAY
EXTD=
EXTT0=
EXTT1=
EXTT2=
EXTT3=
EXTT4=
EXTT5=
EXTT6=
EXTT7=
EXTT8=
EXTT9=
EXTT10=
EXTT11=
EXTT12=
EXTT13=
EXTT14=
PLAYORDER=
